<?xml version="1.0" encoding="iso-8859-1"?>
<!-- Uploaded to: SVG Repo, www.svgrepo.com, Generator: SVG Repo Mixer Tools -->
<svg height="800px" width="800px" version="1.1" id="Layer_1" xmlns="http://www.w3.org/2000/svg" xmlns:xlink="http://www.w3.org/1999/xlink" 
	 viewBox="0 0 512 512" xml:space="preserve">
<g>
	<path style="fill:#FFAE3E;" d="M408.634,26.16L228.486,206.308L49.256,420.464l42.279,42.279l214.157-179.229l180.148-180.148
		c21.32-21.32,21.32-55.887,0-77.206l0,0C464.521,4.84,429.955,4.84,408.634,26.16z"/>
	<path style="fill:#FFAE3E;" d="M61.62,495.328L16.672,450.38c-8.629-8.629-8.629-22.621,0-31.25l0,0
		c8.629-8.629,22.621-8.629,31.25,0l44.949,44.949c8.629,8.629,8.629,22.621,0,31.25l0,0
		C84.241,503.957,70.249,503.957,61.62,495.328z"/>
</g>
<path d="M493.054,18.947c-25.263-25.263-66.369-25.263-91.632,0L221.273,199.095c-0.213,0.213-0.416,0.436-0.61,0.666L47.742,406.38
	c-4.685-2.558-9.959-3.922-15.446-3.922c-8.627,0-16.737,3.36-22.836,9.459C3.36,418.018,0,426.128,0,434.756
	c0,8.627,3.36,16.737,9.459,22.837l44.948,44.947c6.099,6.1,14.21,9.46,22.837,9.46c8.628,0,16.738-3.36,22.837-9.459
	c6.101-6.099,9.46-14.21,9.46-22.837c0-5.486-1.364-10.761-3.922-15.446l206.619-172.922c0.232-0.193,0.453-0.397,0.666-0.61
	l180.148-180.148C518.316,85.315,518.316,44.21,493.054,18.947z M85.657,471.291c2.247,2.247,3.485,5.236,3.485,8.413
	c0,3.177-1.237,6.165-3.485,8.413c-2.247,2.247-5.235,3.484-8.413,3.484c-3.177,0-6.165-1.237-8.412-3.484v-0.001l-44.949-44.948
	c-2.247-2.247-3.484-5.235-3.484-8.412c0-3.178,1.237-6.166,3.485-8.414c2.247-2.247,5.235-3.484,8.412-3.484
	c3.177,0,6.166,1.238,8.413,3.485L85.657,471.291z M478.628,96.154L298.799,275.982L92.148,448.932l-29.08-29.08l172.949-206.651
	L415.846,33.372c17.309-17.31,45.475-17.308,62.782,0C495.937,50.681,495.937,78.845,478.628,96.154z"/>
<path d="M398.741,68.235l-99.959,99.959c-3.983,3.983-3.983,10.442,0,14.426c1.992,1.991,4.602,2.988,7.212,2.988
	c2.61,0,5.22-0.997,7.212-2.988l99.959-99.959c3.983-3.983,3.983-10.442,0-14.426C409.182,64.253,402.725,64.253,398.741,68.235z"/>
<path d="M426.28,40.696l-4.08,4.08c-3.983,3.983-3.983,10.442,0,14.426c1.992,1.991,4.602,2.988,7.212,2.988
	c2.61,0,5.22-0.997,7.212-2.988l4.08-4.08c3.983-3.983,3.983-10.442,0-14.426C436.72,36.714,430.264,36.714,426.28,40.696z"/>
</svg>